<?xml version="1.0" encoding="UTF-8"?>
<svg version="1.1" viewBox="0 0 2048 1319" width="1280" height="1280" xmlns="http://www.w3.org/2000/svg">
<path transform="translate(656,531)" d="m0 0h17l18 3 21 7 16 9 6 5 9 14 8 17 4 17v24l-4 16-6 14-7 11-10 13-10 11-8 7-15 12 10 24 8 24 5 23 2 19v23l-2 18-6 25-8 20-8 16-12 18-11 14-14 15-8 7-12 10-14 9-22 10-27 9-22 5-22 3h-38l-21-3-23-6-20-8-21-11-17-12-14-12-13-13-11-14-8-11-8-13-12-23-10-26-5-18-4-23-2-18-1-15v-24l2-23 5-25 6-20 6-15 8-17 13-21 10-14 8-10 11-13 5-5-2 13-8 43-5 35-4 43-1 17-1 33v33l3 21 5 19 8 19 7 13 10 14 10 11 12 12 17 12 14 8 17 8 22 7 21 4 8 1h32l19-3 18-5 18-8 11-7 10-8 9-9 9-13 6-12 7-22 4-23 1-19-2-25-5-23-7-20-10-20-10-15-8-10-11-12-15-12-16-9-16-5-6-1 1-4 10-5 6-1h29l33 3h21l16-3 12-5 11-7 9-10 7-14 3-10 1-8v-13l-3-12-6-10-9-8-13-6-14-4-26-3-28-1 3-5 11-8 13-6 13-3z" fill="#EE363D"/>
<path transform="translate(1764,531)" d="m0 0h17l18 3 21 7 16 9 6 5 9 14 6 12 5 16 1 5v25l-4 16-5 12-10 16-9 11-9 10-8 7-15 12 10 24 8 24 5 23 2 18v25l-3 22-5 20-8 20-8 16-9 14-10 13-9 10-7 8-12 11-17 13-15 8-25 10-20 6-23 5-17 2h-38l-21-3-23-6-20-8-21-11-17-12-14-12-13-13-11-14-8-11-9-15-11-21-10-26-5-18-4-24-2-17-1-16v-22l2-23 4-22 6-21 7-18 8-16 9-16 11-16 11-14 11-13 5-5-2 13-7 38-5 33-4 37-2 30-1 33v32l3 22 5 19 8 19 9 16 9 12 11 13 8 7 17 13 18 10 18 8 19 6 21 4 8 1h32l19-3 18-5 18-8 11-7 10-8 10-10 10-15 6-15 6-21 3-17 1-22-2-23-4-19-8-24-10-20-10-15-8-10-11-12-15-12-16-9-16-5-6-1 1-4 10-5 6-1h29l33 3h21l16-3 12-5 11-7 9-10 7-14 3-10 1-7v-14l-3-12-6-10-9-8-13-6-14-4-26-3-28-1 6-7 8-6 13-6 13-3z" fill="#3C393B"/>
<path transform="translate(1868,689)" d="m0 0h24l18 3 18 5 18 8 16 9 13 10 10 9 10 10 11 15 10 17 8 20 5 17 3 16 1 9v18l-2 23-4 21-8 24-8 17-12 18-11 13-10 10-14 11-14 9-18 10-19 8-27 9-30 7-31 5-37 5-35 3-66 3-55 3-42 4-33 5-21 6-18 8-14 10-7 9-4 8-2 7v19l4 15 7 17 10 18 16 24-1 2-14-10-13-11-7-7-10-14-7-14-4-13-1-6v-25l4-15 6-11 11-12 12-9 17-9 22-8 28-7 35-6 37-4 85-6 41-5 38-7 31-8 30-10 26-11 23-12 20-13 9-7 9-11 9-16 6-16 2-10 1-16-2-18-6-21-8-18-10-19-7-11-9-11-11-12-14-14-14-11-10-7-15-9-19-9-22-7 2-4 8-7 13-6 12-3z" fill="#3C393B"/>
<path transform="translate(760,689)" d="m0 0h24l18 3 18 5 18 8 16 9 13 10 10 9 10 10 11 15 9 15 8 19 6 20 3 16 1 9v19l-2 21-5 25-7 21-8 17-12 18-11 13-10 10-14 11-14 9-18 10-27 11-27 8-27 6-39 6-33 4-43 3-89 4-38 3-34 4-22 4-17 5-18 8-10 7-7 6-7 11-3 10v19l4 15 7 17 10 18 16 24-1 2-14-10-13-11-7-7-10-14-8-16-4-17v-24l2-10 5-12 8-11 8-8 15-10 17-8 24-8 26-6 38-6 40-4 63-4 38-4 37-6 27-6 26-7 28-10 25-11 19-10 20-13 9-7 9-11 9-16 6-16 2-10 1-16-2-18-6-21-8-18-10-19-10-15-13-15-18-18-14-11-10-7-15-9-19-9-22-7 2-4 8-7 13-6 12-3z" fill="#EE363D"/>
<path transform="translate(1252,608)" d="m0 0h36l18 3 18 5 18 8 15 10 11 10 13 17 11 18 8 19 4 18v25l-4 16-7 14-10 13-11 10-14 9-12 6-2-1 7-7 11-15 8-15 5-17 1-16-3-16-5-13-9-14-11-13-11-10-18-13-7-4-17-3-9-1h-22l-19 3-16 5-16 8-11 7-11 10-11 14-8 13-8 17-7 22-2 12v31l4 24 8 26 10 23 11 20 12 18 10 13 12 14 22 22 11 9 13 10 18 12 16 9 16 8 21 9 24 8 26 6 26 4 13 1h44l29-3 27-5 8-1-3 2-28 8-21 5-31 5-22 2h-49l-27-3-31-6-21-6-20-8-31-15-24-14-19-13-14-11-14-12-17-17-9-11-11-15-12-20-8-17-9-27-5-24-2-19v-33l3-26 6-29 6-18 11-21 10-14 12-13 13-11 19-12 20-9 20-6z" fill="#3C393B"/>
<path transform="translate(144,608)" d="m0 0h35l19 3 18 5 18 8 15 10 10 9 11 14 10 15 8 16 5 14 3 14v25l-4 16-7 14-10 13-11 10-14 9-12 6-2-1 11-12 10-15 6-13 4-14 1-8v-9l-3-15-5-13-10-16-14-15-14-11-14-10-8-3-22-3h-22l-20 3-18 6-17 9-10 8-9 8-13 17-11 21-9 27-2 13v30l4 24 8 26 10 23 11 20 12 18 10 13 12 14 23 23 14 11 13 10 19 12 24 13 24 10 24 8 26 6 26 4 13 1h44l29-3 27-5 8-1-3 2-28 8-27 6-25 4-22 2h-49l-27-3-31-6-21-6-15-6-20-9-25-13-18-11-16-11-14-11-14-12-18-18-11-14-10-14-10-17-8-17-7-20-6-25-3-21v-40l4-29 5-23 6-18 11-21 10-14 12-13 13-11 19-12 15-7 21-7 20-4z" fill="#EE363D"/>
<path transform="translate(1394,121)" d="m0 0h20l17 3 15 5 16 8 11 8 10 9 9 10 8 13 5 11 4 13 2 13v22l-2 17-4 14-5 12-8 11-6 7-13 9-12 5-11 2h-9l-12-3-9-6-6-8-2-6v-13l5-10 7-6 6-3 11-1 10 3 9 8 4 8v2l5-5 7-11 2-6 1-8v-20l-3-18-5-15-8-14-8-9-10-7-10-5-11-3h-20l-15 4-11 6-10 10-10 14-7 14-4 13-1 6v26l4 19 8 22 13 25 14 22 13 17 10 13 11 14 10 16 8 16 6 18 3 18v22l-3 17-5 16-7 16-10 18-6 9-1-2 6-15 6-20 4-23v-29l-3-16-6-17-8-15-9-12-10-11-9-11-11-13-15-20-12-17-12-20-12-23-8-21-5-20-2-18 1-18 4-17 7-16 7-11 9-12 12-12 14-9 16-6z" fill="#3D3A3C"/>
<path transform="translate(286,121)" d="m0 0h20l17 3 15 5 16 8 11 8 10 9 9 10 8 13 6 14 4 15 1 8v22l-2 17-4 14-5 12-8 11-6 7-13 9-12 5-11 2h-9l-12-3-9-6-6-8-2-6v-13l5-10 8-7 10-3 11 1 8 4 8 9 2 7 5-5 6-9 3-8 1-9v-18l-3-19-5-15-8-14-7-8-11-8-10-5-11-3h-20l-15 4-11 6-10 10-10 14-7 14-4 13-1 6v26l4 19 8 22 13 25 14 22 13 17 10 13 11 14 11 18 9 19 5 18 2 13v22l-3 17-8 24-11 21-9 14-1-2 7-18 5-17 4-23v-29l-3-16-6-17-8-15-9-12-10-11-9-11-11-13-15-20-12-17-12-20-12-23-8-21-5-20-2-17v-9l2-16 5-16 8-16 12-17 13-13 14-9 16-6z" fill="#EE363D"/>
<path transform="translate(1301,363)" d="m0 0h18l17 3 11 4 9 7 7 10 4 12v19l-4 14-9 19-9 13-5 2h-7l-1-2 1-11 2-11v-23l-3-8-6-5-11-2h-15l-12 3-10 6-7 8-9 15-8 16-5 12-4 13-3 18v17l3 17 5 14 7 14 3 5 10 6 11 3h8l13-4 11-8 9-9 13-18 5-7v-3h-5l-19 19-10 5h-6l-5-4-1-3 4-11 8-15 9-12 12-14 10-9 11-7 7-3 11-1 8 3 4 4 1 9v20l-3 19-5 15-9 17-9 12-9 10-9 9-9 6-15 7-14 4-7 1h-17l-14-3-16-8-12-10-9-12-8-16-5-15-3-17-1-9v-27l5-24 6-20 8-20 9-16 11-14 9-9 13-9 15-7 12-3z" fill="#3C393B"/>
<path transform="translate(193,363)" d="m0 0h18l17 3 11 4 9 7 7 10 4 12v19l-4 14-9 19-9 13-5 2h-7l-1-2 1-11 2-12v-21l-4-12-5-2-11-2h-15l-12 3-10 6-7 8-12 20-8 17-6 19-3 17v18l3 17 6 17 9 16 10 6 11 3h8l13-4 11-8 9-9 13-18 5-7v-3h-5l-19 19-10 5h-6l-5-4-1-3 5-14 10-16 10-13 11-12 14-11 11-5 11-1 8 3 4 4 1 9v20l-3 19-5 15-9 17-9 12-9 10-9 9-9 6-15 7-14 4-7 1h-17l-14-3-16-8-11-9-10-13-8-16-5-15-3-17-1-9v-27l5-24 6-20 8-20 9-16 11-14 9-9 13-9 15-7 12-3z" fill="#EE363D"/>
<path transform="translate(1731,290)" d="m0 0 6 1 3 3 4 11 4 18 3 29v47l-3 27-5 27-7 28-10 30-12 29-13 28-12 22-13 23-15 24-24 36-14 20-14 19-10 14-12 19-14 27-10 25-6 22-4 24-1 11v36l1 26-2-3-6-19-4-19-2-19v-17l2-20 5-24 7-23 10-24 12-25 14-25 13-21 17-25 13-18 11-17 9-15 10-18 10-19 13-30 10-28 8-29 6-29 4-28 3-39h-9l-17-2-15-5-8-6-4-7v-8l4-6 7-6-3-12 1-7 4-5 9-4 12-2h25l1-13 3-6zm-37 34-4 4v7l4 4 3 1h26v-15l-5-1zm-11 29-3 3-1 5 3 6 2 1 13 1h23l1-15-1-1z" fill="#3E3B3D"/>
<path transform="translate(623,290)" d="m0 0 6 1 3 3 5 14 4 22 2 23v45l-2 21-5 30-7 28-8 25-9 24-11 25-17 34-14 24-13 22-26 39-16 23-14 19-10 14-12 19-14 27-8 19-6 19-5 25-2 19v36l1 25-2-2-6-19-4-19-2-18v-20l3-24 6-25 8-24 11-25 10-20 14-24 11-18 17-25 13-18 16-25 13-23 11-21 13-30 9-25 8-28 6-27 4-26 2-19 2-28h-10l-16-2-15-5-8-6-4-7v-8l4-6 7-6-3-13 1-6 4-5 9-4 12-2h25l1-13 3-6zm-37 34-4 4v7l4 4 3 1h26v-15l-5-1zm-11 29-3 3-1 6 3 5 2 1 13 1h23l1-7v-8l-1-1z" fill="#EE363D"/>
<path transform="translate(1855,269)" d="m0 0h13l17 3 13 5 13 7 10 8 10 12 8 13 5 13 2 9v16l-4 16-8 16-10 14-12 13-9 9-11 9-17 13-21 14-20 12-18 10-27 14-29 14-2-1 14-12 14-11 18-14 28-22 17-14 14-12 12-11 17-17 10-13 8-16 2-7v-16l-4-11-6-10-10-9-14-8-14-5-9-2-9-1h-13l-17 3-12 5-10 6-10 9-7 6-3-3 1-7 7-9 7-7 14-11 15-9 11-5 13-4z" fill="#3E3B3D"/>
<path transform="translate(747,269)" d="m0 0h13l17 3 15 6 11 6 11 9 12 15 8 16 4 15v15l-4 16-5 12-10 15-11 13-13 13-11 9-17 13-21 14-20 12-18 10-27 14-29 14-2-1 14-12 14-11 18-14 14-11 15-12 14-11 10-9 11-9 24-24 10-13 8-16 2-7v-16l-4-11-6-10-10-9-14-8-14-5-9-2-9-1h-13l-17 3-12 5-10 6-10 9-5 5h-4l-1-6 4-8 11-11 14-11 15-9 11-5 13-4z" fill="#EE363D"/>
<path transform="translate(1544)" d="m0 0h11l8 4 6 7 1 2v12l-5 10-10 14-8 15-3 11v8l3 10 4 6 12 6h11l10-5 7-7 1-2h-9l-8-3-5-6-2-6v-10l3-9 6-8 9-6 6-2h13l11 4 6 4 5 5 6 8 4 10 1 5v13l-3 11-5 10-9 10-8 6-10 5-11 3-7 1h-16l-17-3-12-4-10-6-8-7-7-11-2-8v-11l3-12 8-15 16-21 3-6v-6l-8 2-15 10-10 4h-6l-2-2v-7l6-9 9-9 10-7 14-7z" fill="#3C393B"/>
<path transform="translate(436)" d="m0 0h11l8 4 6 7 1 2v12l-5 10-10 14-8 15-3 11v9l4 11 5 5 10 5h11l10-5 7-7 1-2h-9l-8-3-5-6-2-6v-10l3-9 6-8 9-6 6-2h13l11 4 6 4 8 8 6 12 2 8v13l-3 11-5 10-9 10-8 6-10 5-11 3-7 1h-16l-17-3-12-4-10-6-9-8-6-10-2-7v-12l3-12 8-15 16-21 3-6v-6l-8 2-15 10-10 4h-6l-2-2v-7l6-9 9-9 10-7 14-7z" fill="#EE363D"/>
<path transform="translate(1890,540)" d="m0 0h6l8 5 5 6 4 12 1 6 1 26 3 16 5 12 8 9 10 5 10 2 15-1 15-4 15-6 16-8 20-11h8l5 4 3 6v9l-7 8-11 10-15 10-14 7-21 6-16 3-15 1-19-2-12-4-11-6-10-9-8-9-8-14-6-14-4-18-1-8v-18l4-16 6-9 7-5z" fill="#3C393B"/>
<path transform="translate(782,540)" d="m0 0h6l8 5 4 5 4 9 2 10 1 26 3 16 4 10 4 6 8 7 10 4 14 1 17-3 19-7 16-8 18-10 4-2h7l6 4 3 7v7l-3 5-10 10-15 11-14 8-21 7-21 4-15 1-19-2-12-4-11-6-10-8-8-10-8-14-6-14-4-18-1-8v-18l3-14 6-10 8-6z" fill="#EE363D"/>
<path transform="translate(1696,106)" d="m0 0h10l6 4 3 6v12l-6 8-8 7-17 10-13 6-24 8-30 7-20 3-11 1h-30l-23-3-25-6-8-4-2-4 1-5 5-3 7-2h57l23-3 22-5 26-9 33-16 17-10z" fill="#3D3A3C"/>
<path transform="translate(588,106)" d="m0 0h10l6 4 3 6v12l-6 8-9 8-22 12-18 7-25 7-23 5-26 3h-30l-23-3-25-6-8-4-2-4 1-5 7-4 5-1h57l23-3 22-5 23-8 20-9 23-12 10-6z" fill="#EE363D"/>
<path transform="translate(652,217)" d="m0 0 8 1 6 5 2 5v11l-6 9-12 9-18 10-15 6-27 8-29 6-17 2h-39l-21-3-21-5-9-4-3-4 1-5 5-4 10-2h18l25 1 24-2 22-4 20-6 21-8 25-12 21-12z" fill="#EE363D"/>
<path transform="translate(1760,217)" d="m0 0 8 1 6 5 2 5v12l-8 10-10 7-18 10-15 6-27 8-29 6-17 2h-39l-21-3-21-5-9-4-3-4 1-5 5-4 10-2h18l25 1 24-2 22-4 21-6 27-11 25-13 14-8z" fill="#3D3A3C"/>
<path transform="translate(1726,161)" d="m0 0h10l5 3 3 3 2 6v9l-6 9-10 8-16 9-15 7-29 9-28 6-26 3h-29l-23-3-25-6-7-3-3-4v-5l5-4 7-2h57l24-3 25-6 27-10 19-9 23-13z" fill="#3C393B"/>
<path transform="translate(618,161)" d="m0 0h10l5 3 3 3 2 7v8l-6 9-10 8-16 9-15 7-29 9-28 6-26 3h-29l-23-3-25-6-7-3-3-4v-5l5-4 7-2h57l24-3 21-5 21-7 25-11 22-12 12-6z" fill="#EE363D"/>
<path transform="translate(863,550)" d="m0 0h16l10 4 9 7 6 9 3 11v9l-3 10-6 9-8 7-9 4-4 1h-12l-11-4-8-6-6-7-4-10-1-5 1-13 6-12 5-6 10-6z" fill="#EE363D"/>
<path transform="translate(1971,550)" d="m0 0h16l10 4 9 7 6 9 3 11v9l-3 10-6 9-8 7-9 4-4 1h-12l-11-4-8-6-6-7-4-10-1-5 1-13 6-12 4-5 9-6z" fill="#3C3A3C"/>
<path transform="translate(1546,376)" d="m0 0 2 1 4 10 6 9 9 10 10 8 17 10 9 6 7 6 7 10 5 11 2 6 2-16-2-11-4-6-19-14-18-13-16-12-2-3 5 2 10 7 23 14 16 11 5 4 5 8 2 7v12l-3 12-2 7 1 5-2-1v-2h-2v-5h-18l-12-4-11-6-12-12-7-12-4-15v-12l-7-10-5-11zm16 35v9l4 13 6 11 12 12 10 6 9 4 5 1h13l-2-5-6-9-7 3h-9l-6-3-4-8 1-9 2-5-14-9-13-11z" fill="#4F4C4E"/>
<path transform="translate(438,376)" d="m0 0 2 2 8 16 11 12 10 8 17 10 9 6 7 6 7 10 5 11 2 7 2-18-2-10-4-6-19-14-14-10-19-14-3-4 5 2 10 7 23 14 16 11 5 4 5 8 2 7v12l-3 12-2 4v7l-4-3 1-4h-18l-12-4-11-6-12-12-7-12-4-16v-11l-7-10-5-11zm16 35v9l4 13 6 11 13 13 15 8 8 2h13l-2-5-6-9-7 3h-9l-7-4-3-7 1-9 2-5-14-9-13-11z" fill="#EE3940"/>
<path transform="translate(1517,542)" d="m0 0h2l20 41 3 10-1 8-2 3h-7l-8-4-11-9-10-9-7-7-11-14v-3l15-5 12-7z" fill="#3E3C3D"/>
<path transform="translate(409,542)" d="m0 0h2l17 35 5 11 1 10-3 6h-7l-8-4-11-9-10-9-7-7-11-14v-3l15-5 12-7z" fill="#EE363D"/>
<path transform="translate(1557,347)" d="m0 0 5 1 24 10 23 12 16 11 12 11 7 8 7 12 4 13 1 6v13l-4 17-4 10-2 1 1-10v-21l-3-14-6-15-8-12-9-10-9-8-14-10-20-12-21-12z" fill="#474446"/>
<path transform="translate(449,347)" d="m0 0 5 1 24 10 23 12 13 9 11 9 7 7 7 10 5 10 4 16v13l-4 17-4 10-2 1 1-10v-21l-3-14-6-15-8-12-11-12-15-12-19-12-25-14z" fill="#EE373E"/>
<path transform="translate(1517,512)" d="m0 0 2 1-4 9-1 8 1 9-31 12-3-1-6-8-8-7-4-4 24-7 25-10z" fill="#403E3F"/>
<path transform="translate(408,512)" d="m0 0 3 1-3 5-2 12 1 9-31 12h-2l-7-9-8-7-4-4 24-7 27-11z" fill="#EE373E"/>
<path transform="translate(1537,1019)" d="m0 0 2 1z" fill="#FEFEFE"/>
<path transform="translate(429,1019)" d="m0 0 2 1z" fill="#FEFEFE"/>
<path transform="translate(1756,509)" d="m0 0 2 1z" fill="#FEFEFE"/>
<path transform="translate(648,509)" d="m0 0 2 1z" fill="#FEFEFE"/>
<path transform="translate(445,916)" d="m0 0" fill="#FEFEFE"/>
<path transform="translate(518,476)" d="m0 0" fill="#FEFEFE"/>
<path transform="translate(1564,387)" d="m0 0" fill="#FEFEFE"/>
<path transform="translate(456,387)" d="m0 0" fill="#EE363D"/>
<path transform="translate(1563,386)" d="m0 0" fill="#FEFEFE"/>
<path transform="translate(455,386)" d="m0 0" fill="#FEFEFE"/>
</svg>
